<svg xmlns="http://www.w3.org/2000/svg" xmlns:xlink="http://www.w3.org/1999/xlink" width="80.465" height="80.455" viewBox="0 0 80.465 80.455"><defs><clipPath id="a"><rect width="80.465" height="80.455" fill="none"/></clipPath></defs><g clip-path="url(#a)"><g transform="translate(0 0)"><path d="M71.093,64.217,74.915,60.4a1.664,1.664,0,0,0,.482-.541A40.2,40.2,0,0,0,29.828,1.434,40.092,40.092,0,0,0,1.4,50.674a40.053,40.053,0,0,0,22.685,26.46h-.622a1.677,1.677,0,0,0,0,3.354H57a1.677,1.677,0,1,0,0-3.354h-.724q1.685-.73,3.3-1.611a1.671,1.671,0,0,0,.579-.375l4.019-4.019L73.051,80a1.677,1.677,0,0,0,2.372,0l4.54-4.54a1.677,1.677,0,0,0,0-2.372ZM21.785,72.222A36.85,36.85,0,0,1,30.7,4.675,36.63,36.63,0,0,1,58.681,8.316,37.062,37.062,0,0,1,73.089,57.052L53.94,51.921a1.677,1.677,0,0,0-2.054,2.054L57.007,73.09A37.187,37.187,0,0,1,21.785,72.222Zm52.452,4.219-8.869-8.87a1.677,1.677,0,0,0-2.372,0l-3.15,3.151L55.877,55.913l14.809,3.968-3.15,3.15a1.677,1.677,0,0,0,0,2.372l8.87,8.87Z" transform="translate(0 -0.035)" fill="#4fb499"/><path d="M74.125,320.433a30.273,30.273,0,0,1-21.346-21.346,1.677,1.677,0,1,0-3.24.868,33.637,33.637,0,0,0,23.718,23.718,1.677,1.677,0,1,0,.868-3.24Z" transform="translate(-41.705 -251.04)" fill="#4fb499"/><path d="M320.395,74.157a1.677,1.677,0,1,0,3.24-.868,33.636,33.636,0,0,0-23.718-23.718,1.677,1.677,0,1,0-.868,3.24A30.272,30.272,0,0,1,320.395,74.157Z" transform="translate(-251.002 -41.738)" fill="#4fb499"/><path d="M233.222,447.628c-.425-.015-.848-.037-1.256-.068a1.677,1.677,0,0,0-.251,3.345c.454.034.923.059,1.393.075h.058a1.677,1.677,0,0,0,.056-3.353Z" transform="translate(-193.99 -377.223)" fill="#4fb499"/><path d="M253.691,46.072c.428.015.851.038,1.257.068.043,0,.085,0,.127,0a1.677,1.677,0,0,0,.123-3.35c-.451-.034-.919-.059-1.392-.076a1.677,1.677,0,0,0-.116,3.352Z" transform="translate(-212.457 -36.01)" fill="#4fb499"/></g><text transform="translate(15.873 40.541)" fill="#4fb499" font-size="12" font-family="SegoeUIBlack, Segoe UI"><tspan x="0" y="0">active</tspan></text></g></svg>