<svg xmlns="http://www.w3.org/2000/svg" xmlns:xlink="http://www.w3.org/1999/xlink" width="97.262" height="113.1" viewBox="0 0 97.262 113.1"><defs><clipPath id="a"><rect width="97.262" height="113.1" fill="none"/></clipPath></defs><g clip-path="url(#a)"><path d="M125.29,200.8l.577-.508a1.093,1.093,0,0,0,.231-.231c.3-.346,7.038-8.123,9.6-14.1h1.223a6.333,6.333,0,0,0,6.323-6.323v-9.992a6.333,6.333,0,0,0-6.323-6.323H135.56A35.729,35.729,0,0,0,125.129,148.9c-.692-2.469-.185-5.1,1.546-7.846a4.714,4.714,0,0,0-4.569-7.177c-6.669.831-10.662,3.854-12.992,6.669a44.028,44.028,0,0,0-6.738-1.315,2.289,2.289,0,0,0-.531,4.546,40.452,40.452,0,0,1,7.454,1.615,2.31,2.31,0,0,0,2.585-.9c1.569-2.331,4.731-5.285,10.777-6.046a.138.138,0,0,1,.138.069.1.1,0,0,1,0,.138c-2.4,3.831-3.115,7.823-2.054,11.562a2.247,2.247,0,0,0,.854,1.708,31,31,0,0,1,10.2,14.423,2.279,2.279,0,0,0,2.169,1.569h2.954a1.753,1.753,0,0,1,1.754,1.754v9.992a1.753,1.753,0,0,1-1.754,1.754h-2.792a2.3,2.3,0,0,0-2.192,1.615c-1.292,4.223-6.969,11.377-9.185,13.938l-.508.438a15.361,15.361,0,0,0-5.262,10.892V211.5H103.806v-3.092a2.309,2.309,0,0,0-.762-1.708,2.284,2.284,0,0,0-1.777-.577,42.9,42.9,0,0,1-10.038-.138,2.235,2.235,0,0,0-1.8.554,2.263,2.263,0,0,0-.785,1.731v3.208H75.467v-.992a21.109,21.109,0,0,0-5.677-13.5,33.6,33.6,0,0,1-6.046-9.162c-.023-.023-.023-.046-.046-.092a27.2,27.2,0,0,1-2.354-6.3l-.023-.092c0-.023-.023-.046-.023-.069A23.559,23.559,0,0,1,60.56,175v-.069a30.252,30.252,0,0,1,.369-4.569,2.282,2.282,0,0,0-4.5-.762,31.012,31.012,0,0,0-.438,5.285,27.7,27.7,0,0,0,.923,7.685h0a33.131,33.131,0,0,0,2.7,7.2A37.461,37.461,0,0,0,66.49,200.15a16.457,16.457,0,0,1,4.385,10.477v.946a1.532,1.532,0,0,0,.023.3,4.5,4.5,0,0,0,4.454,4.177H88.714a4.481,4.481,0,0,0,4.477-4.477v-.762a47.632,47.632,0,0,0,6.023.092v.669a4.481,4.481,0,0,0,4.477,4.477h13.362a4.481,4.481,0,0,0,4.477-4.477v-3.254A11.081,11.081,0,0,1,125.29,200.8Z" transform="translate(-55.982 -102.95)" fill="#4fb499"/><path d="M56.819,128.708A18.808,18.808,0,1,0,75.627,109.9,18.826,18.826,0,0,0,56.819,128.708Zm33.046,0a14.238,14.238,0,1,1-14.238-14.238A14.261,14.261,0,0,1,89.865,128.708Z" transform="translate(-56.626 -84.538)" fill="#f7b743"/><path d="M200.834,13.108a13.108,13.108,0,1,0-13.108,13.108A13.128,13.128,0,0,0,200.834,13.108Zm-21.669,0a8.538,8.538,0,1,1,8.538,8.538A8.549,8.549,0,0,1,179.165,13.108Z" transform="translate(-147.241)" fill="#f7b743"/><path d="M125.29,200.8l.577-.508a1.093,1.093,0,0,0,.231-.231c.3-.346,7.038-8.123,9.6-14.1h1.223a6.333,6.333,0,0,0,6.323-6.323v-9.992a6.333,6.333,0,0,0-6.323-6.323H135.56A35.729,35.729,0,0,0,125.129,148.9c-.692-2.469-.185-5.1,1.546-7.846a4.714,4.714,0,0,0-4.569-7.177c-6.669.831-10.662,3.854-12.992,6.669a44.028,44.028,0,0,0-6.738-1.315,2.289,2.289,0,0,0-.531,4.546,40.452,40.452,0,0,1,7.454,1.615,2.31,2.31,0,0,0,2.585-.9c1.569-2.331,4.731-5.285,10.777-6.046a.138.138,0,0,1,.138.069.1.1,0,0,1,0,.138c-2.4,3.831-3.115,7.823-2.054,11.562a2.247,2.247,0,0,0,.854,1.708,31,31,0,0,1,10.2,14.423,2.279,2.279,0,0,0,2.169,1.569h2.954a1.753,1.753,0,0,1,1.754,1.754v9.992a1.753,1.753,0,0,1-1.754,1.754h-2.792a2.3,2.3,0,0,0-2.192,1.615c-1.292,4.223-6.969,11.377-9.185,13.938l-.508.438a15.361,15.361,0,0,0-5.262,10.892V211.5H103.806v-3.092a2.309,2.309,0,0,0-.762-1.708,2.284,2.284,0,0,0-1.777-.577,42.9,42.9,0,0,1-10.038-.138,2.235,2.235,0,0,0-1.8.554,2.263,2.263,0,0,0-.785,1.731v3.208H75.467v-.992a21.109,21.109,0,0,0-5.677-13.5,33.6,33.6,0,0,1-6.046-9.162c-.023-.023-.023-.046-.046-.092a27.2,27.2,0,0,1-2.354-6.3l-.023-.092c0-.023-.023-.046-.023-.069A23.559,23.559,0,0,1,60.56,175v-.069a30.252,30.252,0,0,1,.369-4.569,2.282,2.282,0,0,0-4.5-.762,31.012,31.012,0,0,0-.438,5.285,27.7,27.7,0,0,0,.923,7.685h0a33.131,33.131,0,0,0,2.7,7.2A37.461,37.461,0,0,0,66.49,200.15a16.457,16.457,0,0,1,4.385,10.477v.946a1.532,1.532,0,0,0,.023.3,4.5,4.5,0,0,0,4.454,4.177H88.714a4.481,4.481,0,0,0,4.477-4.477v-.762a47.632,47.632,0,0,0,6.023.092v.669a4.481,4.481,0,0,0,4.477,4.477h13.362a4.481,4.481,0,0,0,4.477-4.477v-3.254A11.081,11.081,0,0,1,125.29,200.8Z" transform="translate(-45.982 -102.95)" fill="#4fb499" opacity="0.1"/></g></svg>