<svg xmlns="http://www.w3.org/2000/svg" xmlns:xlink="http://www.w3.org/1999/xlink" width="75.962" height="91.155" viewBox="0 0 75.962 91.155"><defs><clipPath id="a"><rect width="75.962" height="91.155" fill="none"/></clipPath></defs><g clip-path="url(#a)"><path d="M46.679,270.027A1.9,1.9,0,0,0,44,269.91q-.329.3-.681.61a1.9,1.9,0,0,0,2.507,2.854q.382-.336.74-.663A1.9,1.9,0,0,0,46.679,270.027Z" transform="translate(-42.669 -221.445)" fill="#4fb499"/><path d="M68.578,175.106a1.9,1.9,0,0,0,2.643-.474c3.127-4.493,3.6-8.934,4.22-17.043a1.9,1.9,0,1,0-3.787-.291c-.587,7.638-.983,11.474-3.551,15.164A1.9,1.9,0,0,0,68.578,175.106Z" transform="translate(-63.296 -127.852)" fill="#4fb499"/><path d="M397.034,132.49a1.9,1.9,0,1,0,3.715-.792c-.078-.367-.165-.737-.257-1.1a1.9,1.9,0,1,0-3.681.936C396.89,131.85,396.965,132.171,397.034,132.49Z" transform="translate(-333.711 -106.171)" fill="#4fb499"/><path d="M413.1,183.788c-5.559-4.623-6.78-9.128-7.555-18.119a1.9,1.9,0,0,0-3.784.326c.836,9.709,2.383,15.284,8.91,20.713a1.9,1.9,0,1,0,2.429-2.92Z" transform="translate(-337.826 -134.747)" fill="#4fb499"/><path d="M131.295,55.946c-.025-.051-.053-.1-.082-.147a4.76,4.76,0,0,0-1.749-1.851c-5.125-2.958-8.227-11.006-9.219-23.92a22.34,22.34,0,0,0-16.452-19.8,6.649,6.649,0,1,0-11.192,0,22.34,22.34,0,0,0-16.452,19.8c-.992,12.914-4.094,20.962-9.219,23.92-1.484.857-2.449,2.675-2.789,5.261-.221,1.678-.289,5.2,1.036,6.525a1.9,1.9,0,0,0,1.342.556H86.784a11.57,11.57,0,0,0,22.827,0h20.264a1.9,1.9,0,0,0,1.342-.556c1.325-1.324,1.256-4.849,1.035-6.527A9.738,9.738,0,0,0,131.295,55.946ZM98.2,3.8a2.851,2.851,0,1,1-2.851,2.851A2.854,2.854,0,0,1,98.2,3.8Zm0,68.366a7.787,7.787,0,0,1-7.538-5.875h15.076A7.787,7.787,0,0,1,98.2,72.165Zm30.308-9.673H67.888a11.225,11.225,0,0,1-.012-2.534c.182-1.7.669-2.556.952-2.72,6.364-3.673,10-12.478,11.107-26.918a18.306,18.306,0,0,1,36.522,0c.534,6.947,1.653,12.586,3.378,16.98H112.7a1.9,1.9,0,0,0,0,3.8h8.959a18.657,18.657,0,0,0,2.884,3.8H105.6a1.9,1.9,0,1,0,0,3.8h22.692a8.838,8.838,0,0,1,.222,1.263A11.211,11.211,0,0,1,128.505,62.492Z" transform="translate(-60.216 0)" fill="#4fb499"/><path d="M178.543,490.664H140.562a1.9,1.9,0,1,0,0,3.8h37.981a1.9,1.9,0,1,0,0-3.8Z" transform="translate(-121.572 -403.306)" fill="#4fb499"/><path d="M245.17,308.339H244.03a1.9,1.9,0,0,0,0,3.8h1.139a1.9,1.9,0,0,0,0-3.8Z" transform="translate(-206.619 -253.443)" fill="#4fb499"/></g></svg>