<svg xmlns="http://www.w3.org/2000/svg" xmlns:xlink="http://www.w3.org/1999/xlink" width="79.278" height="79.29" viewBox="0 0 79.278 79.29"><defs><clipPath id="a"><rect width="79.278" height="79.29" fill="none"/></clipPath></defs><g clip-path="url(#a)"><path d="M72.82,221.164a1.652,1.652,0,0,0-2.457,2.209c.215.238.439.476.669.705a1.652,1.652,0,1,0,2.336-2.336C73.18,221.554,73,221.359,72.82,221.164Z" transform="translate(-59.115 -186.451)" fill="#4fb499"/><path d="M47.932,74.393A18.176,18.176,0,0,0,44.216,94.72a1.652,1.652,0,1,0,3.011-1.359,14.945,14.945,0,0,1,3.042-16.632,1.652,1.652,0,1,0-2.336-2.336Z" transform="translate(-36.015 -62.464)" fill="#4fb499"/><path d="M231.255,106.4a1.652,1.652,0,1,0-3.012,1.359,14.946,14.946,0,0,1-3.042,16.632,1.652,1.652,0,0,0,2.336,2.336,18.177,18.177,0,0,0,3.717-20.327Z" transform="translate(-189.923 -89.101)" fill="#4fb499"/><path d="M225.752,77.31a1.652,1.652,0,0,0,2.457-2.209c-.217-.242-.443-.479-.669-.706a1.652,1.652,0,0,0-2.334,2.338C225.39,76.918,225.574,77.112,225.752,77.31Z" transform="translate(-189.925 -62.466)" fill="#4fb499"/><path d="M78.349,68.98,57.521,48.151l0,0,0,0-4.436-4.436a3.28,3.28,0,0,0-2.336-.966,3.328,3.328,0,0,0-.852.114l-4.414-4.414a24.738,24.738,0,1,0-7,7.011l4.41,4.41a3.338,3.338,0,0,0-.114.852,3.281,3.281,0,0,0,.965,2.336l4.437,4.437,0,0,0,0L69.005,78.324a3.308,3.308,0,0,0,4.672,0l4.672-4.672a3.307,3.307,0,0,0,0-4.671Zm-38.378-29A21.474,21.474,0,0,1,9.619,9.593,21.474,21.474,0,0,1,40,39.947Zm1.185,3.488L42.3,42.318l.02-.019.019-.019,1.149-1.149,3.746,3.746L44.9,47.212Zm4.913,7.249,4.672-4.672,3.271,3.271-4.672,4.672ZM71.346,75.986h0v0L51.678,56.324l4.672-4.672L76.014,71.315Z" transform="translate(-0.037 0)" fill="#4fb499"/></g></svg>