<svg xmlns="http://www.w3.org/2000/svg" xmlns:xlink="http://www.w3.org/1999/xlink" width="71.155" height="85.385" viewBox="0 0 71.155 85.385"><defs><clipPath id="a"><rect width="71.155" height="85.385" fill="none"/></clipPath></defs><g clip-path="url(#a)"><path d="M294.971,291.869a17.142,17.142,0,0,0-5.1-2.007c-.388-.107-.774-.214-1.153-.325-2.174-.639-3.567-1.9-3.729-3.374a3.216,3.216,0,0,1,1.919-3.076,3.788,3.788,0,0,1,.93-.353v2.646a1.779,1.779,0,1,0,3.558,0v-2.516a10.567,10.567,0,0,1,2.879,1.17,1.779,1.779,0,0,0,1.842-3.044,14.246,14.246,0,0,0-4.721-1.767v-1.279a1.779,1.779,0,1,0-3.558,0v1.171a7.683,7.683,0,0,0-2.647.855,6.735,6.735,0,0,0-3.739,6.579c.323,2.95,2.663,5.343,6.262,6.4l.124.035v8.376a4.328,4.328,0,0,1-3.08-1.62,1.779,1.779,0,0,0-3.158,1.639c1.082,2.085,3.592,3.26,6.238,3.56V306.8a1.779,1.779,0,0,0,3.558,0v-1.985a9.753,9.753,0,0,0,1.074-.269,7.7,7.7,0,0,0,5.287-6.185A6.514,6.514,0,0,0,294.971,291.869Zm-.738,5.973a4.122,4.122,0,0,1-2.836,3.306l0,0v-7.1a7.452,7.452,0,0,1,1.582.768A3.03,3.03,0,0,1,294.234,297.842Z" transform="translate(-241.584 -230.111)" fill="#4fb499"/><path d="M90.695,39.135q-.9,0-1.78.068V8.45c0-1.857-1.3-4.478-7.5-6.415A54.541,54.541,0,0,0,65.79,0,54.542,54.542,0,0,0,50.166,2.035c-6.2,1.937-7.5,4.558-7.5,6.415V62.26c0,1.857,1.3,4.477,7.5,6.415A54.537,54.537,0,0,0,65.79,70.71c1.12,0,2.24-.028,3.346-.082A23.125,23.125,0,1,0,90.695,39.135ZM51.227,5.43A50.947,50.947,0,0,1,65.79,3.558,50.948,50.948,0,0,1,80.354,5.43c4.084,1.276,5,2.642,5,3.019s-.919,1.743-5,3.019A50.953,50.953,0,0,1,65.79,13.342a50.946,50.946,0,0,1-14.564-1.873c-4.085-1.276-5-2.641-5-3.019S47.142,6.707,51.227,5.43Zm-5,7.787a20.163,20.163,0,0,0,3.943,1.647A54.537,54.537,0,0,0,65.79,16.9a54.548,54.548,0,0,0,15.625-2.035,20.161,20.161,0,0,0,3.943-1.647v4.2c0,.377-.919,1.743-5,3.019A50.954,50.954,0,0,1,65.79,22.31a62.837,62.837,0,0,1-7.443-.429,1.779,1.779,0,0,0-.423,3.532,66.389,66.389,0,0,0,7.867.454,54.539,54.539,0,0,0,15.625-2.035,20.171,20.171,0,0,0,3.943-1.647V35.355c0,.378-.919,1.743-5,3.019A50.947,50.947,0,0,1,65.79,40.247a50.946,50.946,0,0,1-14.564-1.873c-4.085-1.276-5-2.642-5-3.019v-4.2A20.173,20.173,0,0,0,50.165,32.8,54.537,54.537,0,0,0,65.79,34.836a63.64,63.64,0,0,0,9.965-.747,1.779,1.779,0,1,0-.56-3.513,60.968,60.968,0,0,1-9.406.7,50.948,50.948,0,0,1-14.564-1.873c-4.085-1.276-5-2.641-5-3.019V13.217ZM65.79,67.152a50.947,50.947,0,0,1-14.564-1.873c-4.085-1.276-5-2.641-5-3.019v-4.2a20.173,20.173,0,0,0,3.943,1.647A54.536,54.536,0,0,0,65.79,61.741c.6,0,1.191-.008,1.785-.024,0,.181-.007.361-.007.542q0,.3.008.605c0,.063,0,.125.007.188,0,.138.009.277.016.415,0,.076.01.152.014.227.008.124.015.248.024.372.007.084.015.167.022.251.01.115.02.23.032.345.01.09.021.181.031.271.012.107.024.213.038.32s.027.2.041.295.027.193.042.289.035.214.054.322c.014.085.029.17.044.255.021.117.045.234.068.351.014.072.028.145.043.216.009.044.017.088.026.132C67.321,67.139,66.556,67.152,65.79,67.152Zm3.826-14.4,0,.005q-.094.208-.183.419c-.017.04-.035.079-.051.119-.028.066-.054.132-.081.2a22.925,22.925,0,0,0-1.363,4.658c-.713.023-1.43.036-2.145.036a50.946,50.946,0,0,1-14.564-1.873c-4.085-1.276-5-2.642-5-3.019V40.122h0a20.173,20.173,0,0,0,3.943,1.647A54.541,54.541,0,0,0,65.79,43.8a59.678,59.678,0,0,0,12.9-1.31A23.21,23.21,0,0,0,73.1,47.249q-.7.817-1.313,1.691c-1.934.182-3.953.275-6,.275a62.836,62.836,0,0,1-7.443-.429,1.779,1.779,0,0,0-.423,3.532,66.388,66.388,0,0,0,7.867.454c1.3,0,2.6-.04,3.866-.111ZM90.695,81.827A19.6,19.6,0,0,1,72.011,68.08c-.03-.1-.058-.194-.087-.291q-.072-.244-.138-.491-.044-.166-.085-.332c-.022-.091-.046-.182-.067-.275q-.065-.28-.122-.563c-.016-.077-.03-.154-.045-.231q-.046-.245-.086-.492c-.008-.051-.018-.1-.026-.154-.032-.209-.06-.419-.086-.63-.007-.061-.014-.122-.021-.184-.023-.2-.043-.408-.059-.613l0-.054c-.017-.222-.029-.444-.039-.667,0-.056,0-.112-.006-.168-.008-.225-.013-.451-.013-.677,0-.271.007-.541.018-.81,0-.044,0-.088.005-.132.011-.242.028-.483.048-.723.006-.076.013-.151.02-.226q.031-.32.071-.636c.015-.114.031-.228.048-.341s.032-.208.049-.312c.042-.252.086-.5.138-.753l0-.009A19.636,19.636,0,0,1,85.3,43.45l.085-.024q.241-.068.484-.13c.185-.047.371-.091.559-.133l.216-.047c.245-.051.492-.1.741-.142a19.568,19.568,0,1,1,3.31,38.853Z" transform="translate(-42.665 0)" fill="#4fb499"/><path d="M89.724,127.92q.413.109.845.212a1.779,1.779,0,0,0,.823-3.461q-.388-.092-.761-.19a1.779,1.779,0,1,0-.908,3.44Z" transform="translate(-80.771 -103.671)" fill="#4fb499"/><path d="M260.762,178.5a1.783,1.783,0,0,0,.509-.075c.35-.1.7-.216,1.048-.334a1.779,1.779,0,0,0-1.143-3.37c-.3.1-.613.2-.921.293a1.779,1.779,0,0,0,.507,3.484Z" transform="translate(-222.909 -145.505)" fill="#4fb499"/><path d="M91.391,286.007q-.389-.092-.762-.19a1.779,1.779,0,1,0-.9,3.441q.413.108.844.211a1.779,1.779,0,0,0,.821-3.462Z" transform="translate(-80.771 -238.103)" fill="#4fb499"/></g></svg>