<svg xmlns="http://www.w3.org/2000/svg" xmlns:xlink="http://www.w3.org/1999/xlink" width="1800" height="945" viewBox="0 0 1800 945"><defs><filter id="a" x="307" y="342" width="547.515" height="506.12" filterUnits="userSpaceOnUse"><feOffset dx="10" dy="10" input="SourceAlpha"/><feGaussianBlur stdDeviation="10" result="b"/><feFlood flood-opacity="0.161"/><feComposite operator="in" in2="b"/><feComposite in="SourceGraphic"/></filter><filter id="c" x="307" y="737.002" width="547.515" height="141.789" filterUnits="userSpaceOnUse"><feOffset dx="10" dy="10" input="SourceAlpha"/><feGaussianBlur stdDeviation="10" result="d"/><feFlood flood-opacity="0.161"/><feComposite operator="in" in2="d"/><feComposite in="SourceGraphic"/></filter><clipPath id="e"><rect width="95.069" height="72.255" fill="none"/></clipPath><clipPath id="f"><rect width="97.262" height="113.1" fill="none"/></clipPath><clipPath id="g"><rect width="92.339" height="85" fill="none"/></clipPath></defs><g transform="translate(0 -760)"><path d="M0,0H1800V945H0Z" transform="translate(0 760)" fill="#fff"/><text transform="translate(918 935)" fill="#51b89b" font-size="46" font-family="Inter-SemiBold, Inter" font-weight="600"><tspan x="-396.726" y="0">Empréstimo com garantia de Imóvel</tspan></text><text transform="translate(918 983)" fill="#777" font-size="20" font-family="Inter-Regular, Inter"><tspan x="-255.099" y="0">Precisando de crédito? Tire seus planos do papel com</tspan><tspan x="-144.659" y="24">as melhores taxas do mercado</tspan></text><g transform="translate(82 27)"><g transform="translate(12 -6)"><g transform="matrix(1, 0, 0, 1, -94, 739)" filter="url(#a)"><g transform="translate(327 362)" fill="#fdfdfd"><path d="M8.365,0H479.15a8.365,8.365,0,0,1,8.365,8.365v429.39a8.365,8.365,0,0,1-8.365,8.365H8.365A8.365,8.365,0,0,1,0,437.755V8.365A8.365,8.365,0,0,1,8.365,0Z" stroke="none"/><path d="M 8.36474609375 0.999969482421875 C 4.303802490234375 0.999969482421875 1 4.30377197265625 1 8.364715576171875 L 1 437.7549133300781 C 1 441.8158569335938 4.303802490234375 445.1196594238281 8.36474609375 445.1196594238281 L 479.1504821777344 445.1196594238281 C 483.21142578125 445.1196594238281 486.5152282714844 441.8158569335938 486.5152282714844 437.7549133300781 L 486.5152282714844 8.364715576171875 C 486.5152282714844 4.30377197265625 483.21142578125 0.999969482421875 479.1504821777344 0.999969482421875 L 8.36474609375 0.999969482421875 M 8.36474609375 -3.0517578125e-05 L 479.1504821777344 -3.0517578125e-05 C 483.7702331542969 -3.0517578125e-05 487.5152282714844 3.745025634765625 487.5152282714844 8.364715576171875 L 487.5152282714844 437.7549133300781 C 487.5152282714844 442.3746032714844 483.7702331542969 446.1196594238281 479.1504821777344 446.1196594238281 L 8.36474609375 446.1196594238281 C 3.7449951171875 446.1196594238281 0 442.3746032714844 0 437.7549133300781 L 0 8.364715576171875 C 0 3.745025634765625 3.7449951171875 -3.0517578125e-05 8.36474609375 -3.0517578125e-05 Z" stroke="none" fill="rgba(112,112,112,0.06)"/></g></g><rect width="485.656" height="0.929" transform="translate(234.859 1180.93)" fill="#ebebeb"/><rect width="485.656" height="0.929" transform="translate(234.859 1392.837)" fill="#ebebeb"/><text transform="translate(470.306 1145.377)" fill="#777" font-size="24" font-family="Inter-SemiBold, Inter" font-weight="600"><tspan x="-135.69" y="0">Simule seu Empréstimo</tspan></text><text transform="translate(299.953 1441.053)" fill="#777" font-size="23" font-family="Inter-Regular, Inter"><tspan x="-40.201" y="0">Parcela</tspan></text><text transform="translate(675.52 1441.053)" fill="#777" font-size="23" font-family="Inter-Regular, Inter"><tspan x="-25.712" y="0">Taxa</tspan></text><text transform="translate(323.671 1468.354)" fill="#777" font-size="21" font-family="Inter-SemiBold, Inter" font-weight="600"><tspan x="-59.652" y="0">R$ 2.196,58</tspan></text><text transform="translate(614.632 1465.455)" fill="#777" font-size="19" font-family="Inter-SemiBold, Inter" font-weight="600"><tspan x="-79.913" y="0">1,39% a.m + IPCA</tspan></text><g transform="translate(258.094 1210.986)"><text transform="translate(357.267 22)" fill="#777" font-size="23" font-family="Inter-SemiBold, Inter" font-weight="600"><tspan x="-64.189" y="0">R$ 130.000</tspan></text><text transform="translate(26 21)" fill="#777" font-size="22" font-family="Inter-Regular, Inter"><tspan x="-26.344" y="0">Valor</tspan></text><rect width="434.832" height="7.435" rx="3.718" transform="translate(0 47.021)" fill="#d8d9d9"/><rect width="309.496" height="7.435" rx="3.718" transform="translate(0 47.021)" fill="#4fb499"/><g transform="translate(292.92 37.732)" fill="#fff" stroke="#f7b743" stroke-width="7"><circle cx="13.941" cy="13.941" r="13.941" stroke="none"/><circle cx="13.941" cy="13.941" r="10.441" fill="none"/></g></g><g transform="translate(258.094 1298.112)"><text transform="translate(412.785 22)" fill="#777" font-size="23" font-family="Inter-SemiBold, Inter" font-weight="600"><tspan x="-21.415" y="0">36x</tspan></text><text transform="translate(46 22)" fill="#777" font-size="23" font-family="Inter-Regular, Inter"><tspan x="-46.212" y="0">Parcelas</tspan></text><rect width="434.832" height="7.435" rx="3.718" transform="translate(0 48.095)" fill="#d8d9d9"/><rect width="220.272" height="7.435" rx="3.718" transform="translate(0 48.095)" fill="#4fb499"/><g transform="translate(203.205 37.732)" fill="#fff" stroke="#f7b743" stroke-width="7"><circle cx="13.941" cy="13.941" r="13.941" stroke="none"/><circle cx="13.941" cy="13.941" r="10.441" fill="none"/></g></g><g transform="translate(233 1496.002)"><g transform="matrix(1, 0, 0, 1, -327, -757)" filter="url(#c)"><rect width="487.515" height="81.789" transform="translate(327 757)" fill="#4fb499"/></g><text transform="translate(227.437 49.024)" fill="#fff" font-size="24" font-family="Inter-SemiBold, Inter" font-weight="600"><tspan x="-102.703" y="0">Solicitar proposta</tspan></text></g></g><g transform="translate(1246.181 991.74)" opacity="0.1"><path d="M56.819,131.749A21.849,21.849,0,1,0,78.668,109.9,21.87,21.87,0,0,0,56.819,131.749Zm38.389,0a16.541,16.541,0,1,1-16.541-16.541A16.567,16.567,0,0,1,95.208,131.749Z" transform="translate(0 -80.438)" fill="#4fb499"/><path d="M205.073,15.227a15.227,15.227,0,1,0-15.227,15.227A15.251,15.251,0,0,0,205.073,15.227Zm-25.173,0a9.919,9.919,0,1,1,9.919,9.919A9.931,9.931,0,0,1,179.9,15.227Z" transform="translate(-86.22)" fill="#4fb499"/></g><g transform="translate(49.181 852.868)" opacity="0.1"><path d="M56.819,136.489A26.589,26.589,0,1,0,83.408,109.9,26.615,26.615,0,0,0,56.819,136.489Zm46.718,0A20.129,20.129,0,1,1,83.408,116.36,20.161,20.161,0,0,1,103.537,136.489Z" transform="translate(0 -74.046)" fill="#4fb499"/><path d="M211.68,18.531A18.531,18.531,0,1,0,193.15,37.061,18.56,18.56,0,0,0,211.68,18.531Zm-30.634,0A12.071,12.071,0,1,1,193.117,30.6,12.086,12.086,0,0,1,181.046,18.531Z" transform="translate(-76.368 86)" fill="#4fb499"/></g></g><g transform="translate(-1 11)"><text transform="translate(1113 1154)" fill="#777" font-size="25" font-family="Inter-SemiBold, Inter" font-weight="600"><tspan x="0" y="0">100% Online, sem burocracia</tspan><tspan x="0" y="30"></tspan><tspan font-family="Inter-Regular, Inter" font-weight="400"><tspan x="0" y="60"></tspan><tspan x="0" y="90"></tspan></tspan></text><text transform="translate(1113 1187)" fill="#777" font-size="17" font-family="Inter-Regular, Inter"><tspan x="0" y="0">Aprovação mais rápida do mercado </tspan><tspan x="0" y="22">e sem burocracia</tspan><tspan x="0" y="44"></tspan><tspan x="0" y="66"></tspan></text><g transform="translate(990 1135)" clip-path="url(#e)"><path d="M85.31,174.173H80.692V133.658a1.758,1.758,0,1,0-3.517,0v42.273a1.766,1.766,0,0,0,1.776,1.758h4.6v2.416a4.518,4.518,0,0,1-4.512,4.512H8.028a4.518,4.518,0,0,1-4.512-4.512V177.69h4.6a1.751,1.751,0,0,0,1.758-1.758V133.658a1.758,1.758,0,1,0-3.517,0v40.515h-4.6A1.751,1.751,0,0,0,0,175.932v4.174a8.043,8.043,0,0,0,8.028,8.028H79.04a8.043,8.043,0,0,0,8.028-8.028v-4.174A1.751,1.751,0,0,0,85.31,174.173Z" transform="translate(8 -115.879)" fill="#4fb499" opacity="0.1"/><path d="M98.1,369.9H77.658a1.758,1.758,0,1,0,0,3.517H96.593a3.97,3.97,0,0,0,3.73,2.611h11.226a3.97,3.97,0,0,0,3.73-2.611H134.23a1.758,1.758,0,1,0,0-3.517H113.786a1.751,1.751,0,0,0-1.758,1.758v.391a.47.47,0,0,1-.462.462H100.34a.47.47,0,0,1-.462-.462v-.391A1.778,1.778,0,0,0,98.1,369.9Z" transform="translate(-62.419 -311.605)" fill="#4fb499"/><path d="M85.31,174.173H80.692V133.658a1.758,1.758,0,1,0-3.517,0v42.273a1.766,1.766,0,0,0,1.776,1.758h4.6v2.416a4.518,4.518,0,0,1-4.512,4.512H8.028a4.518,4.518,0,0,1-4.512-4.512V177.69h4.6a1.751,1.751,0,0,0,1.758-1.758V133.658a1.758,1.758,0,1,0-3.517,0v40.515h-4.6A1.751,1.751,0,0,0,0,175.932v4.174a8.043,8.043,0,0,0,8.028,8.028H79.04a8.043,8.043,0,0,0,8.028-8.028v-4.174A1.751,1.751,0,0,0,85.31,174.173Z" transform="translate(0 -115.879)" fill="#4fb499"/><path d="M206.358,108.925l-10.142,10.089-3.535-3.552a1.758,1.758,0,0,0-2.487,2.487l4.76,4.8a1.778,1.778,0,0,0,1.243.515,1.81,1.81,0,0,0,1.243-.515l11.4-11.332a1.758,1.758,0,1,0-2.487-2.487Z" transform="translate(-155.985 -96.563)" fill="#f7b743"/><path d="M136.458,41.7H93.048A6.459,6.459,0,0,0,86.6,48.148V73.8a6.459,6.459,0,0,0,6.448,6.448h1.829V87.97a2.6,2.6,0,0,0,2.611,2.593,2.549,2.549,0,0,0,1.954-.906l8.135-9.414h28.881a6.459,6.459,0,0,0,6.448-6.448V48.148A6.458,6.458,0,0,0,136.458,41.7Zm2.931,32.1a2.934,2.934,0,0,1-2.931,2.931h-29.7a1.742,1.742,0,0,0-1.332.6l-7.051,8.153v-7a1.751,1.751,0,0,0-1.758-1.758H93.03A2.934,2.934,0,0,1,90.1,73.8V48.148a2.934,2.934,0,0,1,2.931-2.931h43.41a2.934,2.934,0,0,1,2.931,2.931V73.8Z" transform="translate(-71.218 -41.7)" fill="#4fb499"/></g></g><g transform="translate(-1 18)"><text transform="translate(1113 1326)" fill="#777" font-size="25" font-family="Inter-SemiBold, Inter" font-weight="600"><tspan x="0" y="0">Menor taxa do mercado</tspan><tspan font-family="Inter-Regular, Inter" font-weight="400"><tspan x="0" y="30"></tspan><tspan x="0" y="60"></tspan></tspan></text><text transform="translate(1113 1359)" fill="#777" font-size="17" font-family="Inter-Regular, Inter"><tspan x="0" y="0">Empréstimos de até R$ 2 milhões </tspan><tspan x="0" y="22">com menor taxa</tspan><tspan x="0" y="44"></tspan></text><g transform="translate(990 1283)" clip-path="url(#f)"><path d="M125.29,200.8l.577-.508a1.093,1.093,0,0,0,.231-.231c.3-.346,7.038-8.123,9.6-14.1h1.223a6.333,6.333,0,0,0,6.323-6.323v-9.992a6.333,6.333,0,0,0-6.323-6.323H135.56A35.729,35.729,0,0,0,125.129,148.9c-.692-2.469-.185-5.1,1.546-7.846a4.714,4.714,0,0,0-4.569-7.177c-6.669.831-10.662,3.854-12.992,6.669a44.028,44.028,0,0,0-6.738-1.315,2.289,2.289,0,0,0-.531,4.546,40.452,40.452,0,0,1,7.454,1.615,2.31,2.31,0,0,0,2.585-.9c1.569-2.331,4.731-5.285,10.777-6.046a.138.138,0,0,1,.138.069.1.1,0,0,1,0,.138c-2.4,3.831-3.115,7.823-2.054,11.562a2.247,2.247,0,0,0,.854,1.708,31,31,0,0,1,10.2,14.423,2.279,2.279,0,0,0,2.169,1.569h2.954a1.753,1.753,0,0,1,1.754,1.754v9.992a1.753,1.753,0,0,1-1.754,1.754h-2.792a2.3,2.3,0,0,0-2.192,1.615c-1.292,4.223-6.969,11.377-9.185,13.938l-.508.438a15.361,15.361,0,0,0-5.262,10.892V211.5H103.806v-3.092a2.309,2.309,0,0,0-.762-1.708,2.284,2.284,0,0,0-1.777-.577,42.9,42.9,0,0,1-10.038-.138,2.235,2.235,0,0,0-1.8.554,2.263,2.263,0,0,0-.785,1.731v3.208H75.467v-.992a21.109,21.109,0,0,0-5.677-13.5,33.6,33.6,0,0,1-6.046-9.162c-.023-.023-.023-.046-.046-.092a27.2,27.2,0,0,1-2.354-6.3l-.023-.092c0-.023-.023-.046-.023-.069A23.559,23.559,0,0,1,60.56,175v-.069a30.252,30.252,0,0,1,.369-4.569,2.282,2.282,0,0,0-4.5-.762,31.012,31.012,0,0,0-.438,5.285,27.7,27.7,0,0,0,.923,7.685h0a33.131,33.131,0,0,0,2.7,7.2A37.461,37.461,0,0,0,66.49,200.15a16.457,16.457,0,0,1,4.385,10.477v.946a1.532,1.532,0,0,0,.023.3,4.5,4.5,0,0,0,4.454,4.177H88.714a4.481,4.481,0,0,0,4.477-4.477v-.762a47.632,47.632,0,0,0,6.023.092v.669a4.481,4.481,0,0,0,4.477,4.477h13.362a4.481,4.481,0,0,0,4.477-4.477v-3.254A11.081,11.081,0,0,1,125.29,200.8Z" transform="translate(-55.982 -102.95)" fill="#4fb499"/><path d="M56.819,128.708A18.808,18.808,0,1,0,75.627,109.9,18.826,18.826,0,0,0,56.819,128.708Zm33.046,0a14.238,14.238,0,1,1-14.238-14.238A14.261,14.261,0,0,1,89.865,128.708Z" transform="translate(-56.626 -84.538)" fill="#f7b743"/><path d="M200.834,13.108a13.108,13.108,0,1,0-13.108,13.108A13.128,13.128,0,0,0,200.834,13.108Zm-21.669,0a8.538,8.538,0,1,1,8.538,8.538A8.549,8.549,0,0,1,179.165,13.108Z" transform="translate(-147.241)" fill="#f7b743"/><path d="M125.29,200.8l.577-.508a1.093,1.093,0,0,0,.231-.231c.3-.346,7.038-8.123,9.6-14.1h1.223a6.333,6.333,0,0,0,6.323-6.323v-9.992a6.333,6.333,0,0,0-6.323-6.323H135.56A35.729,35.729,0,0,0,125.129,148.9c-.692-2.469-.185-5.1,1.546-7.846a4.714,4.714,0,0,0-4.569-7.177c-6.669.831-10.662,3.854-12.992,6.669a44.028,44.028,0,0,0-6.738-1.315,2.289,2.289,0,0,0-.531,4.546,40.452,40.452,0,0,1,7.454,1.615,2.31,2.31,0,0,0,2.585-.9c1.569-2.331,4.731-5.285,10.777-6.046a.138.138,0,0,1,.138.069.1.1,0,0,1,0,.138c-2.4,3.831-3.115,7.823-2.054,11.562a2.247,2.247,0,0,0,.854,1.708,31,31,0,0,1,10.2,14.423,2.279,2.279,0,0,0,2.169,1.569h2.954a1.753,1.753,0,0,1,1.754,1.754v9.992a1.753,1.753,0,0,1-1.754,1.754h-2.792a2.3,2.3,0,0,0-2.192,1.615c-1.292,4.223-6.969,11.377-9.185,13.938l-.508.438a15.361,15.361,0,0,0-5.262,10.892V211.5H103.806v-3.092a2.309,2.309,0,0,0-.762-1.708,2.284,2.284,0,0,0-1.777-.577,42.9,42.9,0,0,1-10.038-.138,2.235,2.235,0,0,0-1.8.554,2.263,2.263,0,0,0-.785,1.731v3.208H75.467v-.992a21.109,21.109,0,0,0-5.677-13.5,33.6,33.6,0,0,1-6.046-9.162c-.023-.023-.023-.046-.046-.092a27.2,27.2,0,0,1-2.354-6.3l-.023-.092c0-.023-.023-.046-.023-.069A23.559,23.559,0,0,1,60.56,175v-.069a30.252,30.252,0,0,1,.369-4.569,2.282,2.282,0,0,0-4.5-.762,31.012,31.012,0,0,0-.438,5.285,27.7,27.7,0,0,0,.923,7.685h0a33.131,33.131,0,0,0,2.7,7.2A37.461,37.461,0,0,0,66.49,200.15a16.457,16.457,0,0,1,4.385,10.477v.946a1.532,1.532,0,0,0,.023.3,4.5,4.5,0,0,0,4.454,4.177H88.714a4.481,4.481,0,0,0,4.477-4.477v-.762a47.632,47.632,0,0,0,6.023.092v.669a4.481,4.481,0,0,0,4.477,4.477h13.362a4.481,4.481,0,0,0,4.477-4.477v-3.254A11.081,11.081,0,0,1,125.29,200.8Z" transform="translate(-45.982 -102.95)" fill="#4fb499" opacity="0.1"/></g></g><g transform="translate(-1 -14)"><text transform="translate(1113 1525)" fill="#777" font-size="25" font-family="Inter-SemiBold, Inter" font-weight="600"><tspan x="0" y="0">Parcelas fixas e maior prazo</tspan><tspan x="0" y="30"></tspan><tspan font-family="Inter-Regular, Inter" font-weight="400"><tspan x="0" y="60"></tspan><tspan x="0" y="90"></tspan></tspan></text><text transform="translate(1113 1559)" fill="#777" font-size="17" font-family="Inter-Regular, Inter"><tspan x="0" y="0">Até 15 anos para pagar, parcelas </tspan><tspan x="0" y="22">que cabem no seu bolso.</tspan><tspan x="0" y="44"></tspan><tspan x="0" y="66"></tspan></text><g transform="translate(991 1501)" clip-path="url(#g)"><circle cx="3.581" cy="3.581" r="3.581" transform="translate(18.178 30.151)" fill="#4fb499"/><path d="M77.918,7.969H66.406V2.656a2.656,2.656,0,0,0-5.312,0V7.969H45.156V2.656a2.656,2.656,0,0,0-5.312,0V7.969H23.906V2.656a2.656,2.656,0,0,0-5.312,0V7.969H7.084A7.082,7.082,0,0,0,0,15.05V77.916A7.084,7.084,0,0,0,7.084,85H77.918A7.082,7.082,0,0,0,85,77.916V15.05A7.079,7.079,0,0,0,77.918,7.969Zm1.769,69.947a1.772,1.772,0,0,1-1.769,1.772H7.084a1.773,1.773,0,0,1-1.772-1.772V15.05a1.772,1.772,0,0,1,1.772-1.769h11.51v5.313a2.656,2.656,0,0,0,5.313,0V13.281H39.844v5.313a2.656,2.656,0,0,0,5.313,0V13.281H61.094v5.313a2.656,2.656,0,0,0,5.313,0V13.281H77.918a1.772,1.772,0,0,1,1.769,1.769Z" fill="#4fb499"/><path d="M71.813,7.344H61.2v-4.9a2.448,2.448,0,0,0-4.9,0v4.9H41.618v-4.9a2.448,2.448,0,0,0-4.9,0v4.9H22.033v-4.9a2.448,2.448,0,0,0-4.9,0v4.9H6.529A6.527,6.527,0,0,0,0,13.871V71.81a6.529,6.529,0,0,0,6.529,6.529H71.813a6.527,6.527,0,0,0,6.527-6.529V13.871A6.525,6.525,0,0,0,71.813,7.344Zm1.63,64.466a1.634,1.634,0,0,1-1.63,1.633H6.529A1.634,1.634,0,0,1,4.9,71.81V13.871a1.634,1.634,0,0,1,1.633-1.63H17.137v4.9a2.448,2.448,0,1,0,4.9,0v-4.9H36.722v4.9a2.448,2.448,0,1,0,4.9,0v-4.9H56.306v4.9a2.448,2.448,0,1,0,4.9,0v-4.9h10.61a1.633,1.633,0,0,1,1.63,1.63Z" transform="translate(14 3.661)" fill="#4fb499" opacity="0.1"/><circle cx="3.581" cy="3.581" r="3.581" transform="translate(60.632 30.151)" fill="#4fb499"/><circle cx="3.581" cy="3.581" r="3.581" transform="translate(46.891 30.151)" fill="#4fb499"/><circle cx="3.581" cy="3.581" r="3.581" transform="translate(18.178 45.338)" fill="#4fb499"/><circle cx="3.581" cy="3.581" r="3.581" transform="translate(60.632 45.338)" fill="#f7b743"/><circle cx="3.581" cy="3.581" r="3.581" transform="translate(46.891 45.338)" fill="#4fb499"/><circle cx="3.581" cy="3.581" r="3.581" transform="translate(18.178 59.344)" fill="#4fb499"/><circle cx="3.581" cy="3.581" r="3.581" transform="translate(60.632 59.344)" fill="#4fb499"/><circle cx="3.581" cy="3.581" r="3.581" transform="translate(46.891 59.344)" fill="#4fb499"/><circle cx="3.581" cy="3.581" r="3.581" transform="translate(32.271 30.151)" fill="#4fb499"/><circle cx="3.581" cy="3.581" r="3.581" transform="translate(32.271 45.338)" fill="#4fb499"/><circle cx="3.581" cy="3.581" r="3.581" transform="translate(32.271 59.344)" fill="#4fb499"/></g></g><path d="M368.849,313.351H357.564V302.062a3.3,3.3,0,0,0-6.6,0v11.289H339.68a3.3,3.3,0,1,0,0,6.6h11.285v11.285a3.3,3.3,0,1,0,6.6,0V319.951h11.285a3.3,3.3,0,0,0,0-6.6Z" transform="translate(545.559 1022.434)" fill="#51b89b" opacity="0.05"/><path d="M368.849,313.351H357.564V302.062a3.3,3.3,0,0,0-6.6,0v11.289H339.68a3.3,3.3,0,1,0,0,6.6h11.285v11.285a3.3,3.3,0,1,0,6.6,0V319.951h11.285a3.3,3.3,0,0,0,0-6.6Z" transform="translate(1063.559 904.434)" fill="#51b89b" opacity="0.05"/></g></svg>