<svg xmlns="http://www.w3.org/2000/svg" xmlns:xlink="http://www.w3.org/1999/xlink" width="92.339" height="85" viewBox="0 0 92.339 85"><defs><clipPath id="a"><rect width="92.339" height="85" fill="none"/></clipPath></defs><g clip-path="url(#a)"><circle cx="3.581" cy="3.581" r="3.581" transform="translate(18.178 30.151)" fill="#4fb499"/><path d="M77.918,7.969H66.406V2.656a2.656,2.656,0,0,0-5.312,0V7.969H45.156V2.656a2.656,2.656,0,0,0-5.312,0V7.969H23.906V2.656a2.656,2.656,0,0,0-5.312,0V7.969H7.084A7.082,7.082,0,0,0,0,15.05V77.916A7.084,7.084,0,0,0,7.084,85H77.918A7.082,7.082,0,0,0,85,77.916V15.05A7.079,7.079,0,0,0,77.918,7.969Zm1.769,69.947a1.772,1.772,0,0,1-1.769,1.772H7.084a1.773,1.773,0,0,1-1.772-1.772V15.05a1.772,1.772,0,0,1,1.772-1.769h11.51v5.313a2.656,2.656,0,0,0,5.313,0V13.281H39.844v5.313a2.656,2.656,0,0,0,5.313,0V13.281H61.094v5.313a2.656,2.656,0,0,0,5.313,0V13.281H77.918a1.772,1.772,0,0,1,1.769,1.769Z" fill="#4fb499"/><path d="M71.813,7.344H61.2v-4.9a2.448,2.448,0,0,0-4.9,0v4.9H41.618v-4.9a2.448,2.448,0,0,0-4.9,0v4.9H22.033v-4.9a2.448,2.448,0,0,0-4.9,0v4.9H6.529A6.527,6.527,0,0,0,0,13.871V71.81a6.529,6.529,0,0,0,6.529,6.529H71.813a6.527,6.527,0,0,0,6.527-6.529V13.871A6.525,6.525,0,0,0,71.813,7.344Zm1.63,64.466a1.634,1.634,0,0,1-1.63,1.633H6.529A1.634,1.634,0,0,1,4.9,71.81V13.871a1.634,1.634,0,0,1,1.633-1.63H17.137v4.9a2.448,2.448,0,1,0,4.9,0v-4.9H36.722v4.9a2.448,2.448,0,1,0,4.9,0v-4.9H56.306v4.9a2.448,2.448,0,1,0,4.9,0v-4.9h10.61a1.633,1.633,0,0,1,1.63,1.63Z" transform="translate(14 3.661)" fill="#4fb499" opacity="0.1"/><circle cx="3.581" cy="3.581" r="3.581" transform="translate(60.632 30.151)" fill="#4fb499"/><circle cx="3.581" cy="3.581" r="3.581" transform="translate(46.891 30.151)" fill="#4fb499"/><circle cx="3.581" cy="3.581" r="3.581" transform="translate(18.178 45.338)" fill="#4fb499"/><circle cx="3.581" cy="3.581" r="3.581" transform="translate(60.632 45.338)" fill="#f7b743"/><circle cx="3.581" cy="3.581" r="3.581" transform="translate(46.891 45.338)" fill="#4fb499"/><circle cx="3.581" cy="3.581" r="3.581" transform="translate(18.178 59.344)" fill="#4fb499"/><circle cx="3.581" cy="3.581" r="3.581" transform="translate(60.632 59.344)" fill="#4fb499"/><circle cx="3.581" cy="3.581" r="3.581" transform="translate(46.891 59.344)" fill="#4fb499"/><circle cx="3.581" cy="3.581" r="3.581" transform="translate(32.271 30.151)" fill="#4fb499"/><circle cx="3.581" cy="3.581" r="3.581" transform="translate(32.271 45.338)" fill="#4fb499"/><circle cx="3.581" cy="3.581" r="3.581" transform="translate(32.271 59.344)" fill="#4fb499"/></g></svg>