<svg xmlns="http://www.w3.org/2000/svg" xmlns:xlink="http://www.w3.org/1999/xlink" width="83.861" height="83.857" viewBox="0 0 83.861 83.857"><defs><clipPath id="a"><rect width="83.861" height="83.857" fill="none"/></clipPath></defs><g clip-path="url(#a)"><g transform="translate(0 0)"><path d="M81.635,28.788,55.08,2.234a7.63,7.63,0,0,0-10.766,0L2.223,44.325a7.629,7.629,0,0,0,0,10.766L5.5,58.365h0L27.506,80.374H24.459a1.747,1.747,0,0,0,0,3.494H59.4a1.747,1.747,0,1,0,0-3.494H40.815l40.82-40.82A7.621,7.621,0,0,0,81.635,28.788Zm-2.471,8.3L37.073,79.175a4.088,4.088,0,0,1-2.906,1.2h-.013a4.087,4.087,0,0,1-2.9-1.2L9.2,57.131,49.627,16.707a1.747,1.747,0,1,0-2.471-2.47L6.733,54.66l-2.04-2.04a4.136,4.136,0,0,1,0-5.824L46.785,4.7a4.136,4.136,0,0,1,5.825,0l9.451,9.451L21.637,54.579a1.747,1.747,0,1,0,2.471,2.471L64.531,16.626,79.164,31.259A4.124,4.124,0,0,1,79.164,37.083Z" transform="translate(0 -0.011)" fill="#4fb499"/><path d="M177.388,305.452a1.747,1.747,0,0,0-2.471,0L161.17,319.2a1.747,1.747,0,1,0,2.471,2.471l13.748-13.747A1.747,1.747,0,0,0,177.388,305.452Z" transform="translate(-134.344 -254.996)" fill="#4fb499"/><path d="M196.976,385.128l-5.638,5.639a1.747,1.747,0,0,0,2.471,2.471l5.638-5.638a1.747,1.747,0,1,0-2.471-2.471Z" transform="translate(-159.571 -321.622)" fill="#4fb499"/><path d="M253.657,353.453l-.741.741a1.747,1.747,0,1,0,2.47,2.471l.741-.741a1.747,1.747,0,0,0-2.47-2.471Z" transform="translate(-211.063 -295.135)" fill="#4fb499"/><path d="M354,161.181a1.747,1.747,0,0,0-2.471,0l-7.412,7.412a1.747,1.747,0,0,0,0,2.471L349.063,176a1.747,1.747,0,0,0,2.471,0l7.412-7.412a1.747,1.747,0,0,0,0-2.471ZM350.3,172.3l-2.471-2.471,4.942-4.941,2.471,2.471Z" transform="translate(-287.33 -134.355)" fill="#4fb499"/><path d="M311.42,58.562a1.741,1.741,0,0,0,1.235-.512l.741-.741a1.747,1.747,0,0,0-2.471-2.47l-.741.741a1.747,1.747,0,0,0,1.236,2.982Z" transform="translate(-258.951 -45.43)" fill="#4fb499"/><path d="M100.819,355.444l-.741.741a1.747,1.747,0,0,0,2.471,2.471l.741-.741a1.747,1.747,0,1,0-2.471-2.471Z" transform="translate(-83.258 -296.8)" fill="#4fb499"/></g></g></svg>