<svg xmlns="http://www.w3.org/2000/svg" width="158.491" height="38.908" viewBox="0 0 158.491 38.908"><path d="M114.364,30.03l-1.155,1.1c-.267.148-.532.321-.8.443a5.535,5.535,0,0,1-2.343.461,5.123,5.123,0,0,1-3.214-.953,6.343,6.343,0,0,1-2.463-5.15,5.508,5.508,0,0,1,5.533-5.645,4.658,4.658,0,0,1,2.486.684A4.088,4.088,0,0,1,114.1,23.39l-5.676,2.32-1.859.146c.6,3.106,2.678,4.912,4.973,4.912A5.912,5.912,0,0,0,114.319,30s.157-.083.045.03Zm-3.425-6.178-4.4,1.93c-.024-.439-.073-.877-.073-1.289,0-2.64,1.811-3.4,2.776-3.4a2.413,2.413,0,0,1,2.393,2.1C111.64,23.537,111.4,23.684,110.939,23.853ZM102.5,29.842c0,.949.167,1.1.961,1.171.414.049.826.071,1.234.12l-.893.538H99.541c.558-.733.654-.806.654-1.294v-.545l-.009-14.526H98.307l1.809-.882h3.453a1.686,1.686,0,0,0-1.068,1.561Zm-6.6-8.354a4.006,4.006,0,0,1-.313,6.765,1.737,1.737,0,0,0-.677,1.2,1.346,1.346,0,0,0,.628,1.053l.872.681c1.06.906,2.027,1.736,2.027,3.423,0,2.3-2.2,4.615-6.352,4.615-3.5,0-5.19-1.686-5.19-3.494a3.515,3.515,0,0,1,1.861-2.979,10.3,10.3,0,0,1,4.611-1.122,2.591,2.591,0,0,1-.726-1.664,2.229,2.229,0,0,1,.242-.952c-.264.025-.53.051-.772.051A3.84,3.84,0,0,1,88.1,25.222a4.408,4.408,0,0,1,1.547-3.274A6.536,6.536,0,0,1,93.967,20.6h4.976l-1.547.883ZM94.185,32.333a3.69,3.69,0,0,0-.556-.026A9.477,9.477,0,0,0,91.1,32.7a2.737,2.737,0,0,0-2.079,2.517c0,1.732,1.668,2.981,4.248,2.981,2.318,0,3.549-1.124,3.549-2.638,0-1.246-.8-1.9-2.628-3.225Zm.694-4.642a2.455,2.455,0,0,1-1.639.684c-2.074,0-3.017-2.713-3.017-4.35a2.838,2.838,0,0,1,.531-1.8,2.239,2.239,0,0,1,1.689-.809c2.007,0,3.042,2.737,3.042,4.494A2.483,2.483,0,0,1,94.879,27.691Zm-13.954,4.3a5.728,5.728,0,0,1-5.892-5.762,6.015,6.015,0,0,1,6.254-5.936,5.682,5.682,0,0,1,5.773,5.764A5.932,5.932,0,0,1,80.926,31.987Zm3.02-1.976a3.076,3.076,0,0,1-2.464,1.243c-2.927,0-4.106-3.981-4.106-6.395a3.719,3.719,0,0,1,1.111-2.983,3.345,3.345,0,0,1,2.177-.829c2.994,0,4.008,4.1,4.008,6.255A4.427,4.427,0,0,1,83.945,30.01Zm-15.87,1.976a5.726,5.726,0,0,1-5.889-5.762,6.015,6.015,0,0,1,6.253-5.936,5.68,5.68,0,0,1,5.769,5.764A5.93,5.93,0,0,1,68.075,31.987ZM71.1,30.01a3.077,3.077,0,0,1-2.462,1.243c-2.922,0-4.106-3.981-4.106-6.395a3.715,3.715,0,0,1,1.112-2.983,3.331,3.331,0,0,1,2.172-.829c2.992,0,4.008,4.1,4.008,6.255A4.455,4.455,0,0,1,71.1,30.01ZM60.652,31.139l-3.237.75a23.4,23.4,0,0,1-3.737.393c-6.244,0-8.623-4.65-8.623-8.289,0-4.444,3.371-8.565,9.144-8.565a13.085,13.085,0,0,1,3.467.477,8.678,8.678,0,0,1,2.986,1.425l-1.88,1.807-.793.18.565-.911A6.427,6.427,0,0,0,53.7,16.251c-3.571,0-6.265,2.747-6.265,6.757,0,4.307,3.076,8.358,8.01,8.358a6.674,6.674,0,0,0,2.874-.57V27.1L54.9,27.29l1.812-.985h4.8l-.587.571a.526.526,0,0,0-.224.365c-.024.209-.046.872-.046,1.1Zm60.672-1v6.222H120.1V20.523h1.221v1.8a4.84,4.84,0,0,1,3.938-2.089c3.029,0,5.069,2.325,5.069,6,0,3.655-2.04,6.028-5.069,6.028A4.828,4.828,0,0,1,121.324,30.135Zm7.695-3.893c0,2.778-1.429,4.911-3.963,4.911a4.884,4.884,0,0,1-3.732-2.39V23.7a4.841,4.841,0,0,1,3.732-2.342C127.59,21.353,129.019,23.469,129.019,26.242ZM132,16.151h1.221V31.985H132Zm14.926,19.182a2.845,2.845,0,0,0,.99.19c.747,0,1.267-.309,1.734-1.4l.891-2.042-4.811-11.557h1.362l4.127,10.015L155.3,20.523h1.382l-5.868,13.983a3,3,0,0,1-2.883,2.134,4.777,4.777,0,0,1-1.221-.166Zm-3.568-3.382c-.082-.4-.143-.748-.188-1.04a7.066,7.066,0,0,1-.059-.893,5.195,5.195,0,0,1-4.237,2.159,3.964,3.964,0,0,1-2.773-.9,3.144,3.144,0,0,1-.987-2.442,2.9,2.9,0,0,1,1.433-2.5,6.534,6.534,0,0,1,3.715-.959h2.849V23.955a2.4,2.4,0,0,0-.828-1.933,3.513,3.513,0,0,0-2.338-.705,3.671,3.671,0,0,0-2.237.638,1.948,1.948,0,0,0-.848,1.605h-1.25l-.026-.062a2.665,2.665,0,0,1,1.178-2.281,5.091,5.091,0,0,1,3.25-.985,5.025,5.025,0,0,1,3.221.972,3.33,3.33,0,0,1,1.219,2.777v5.654a9.082,9.082,0,0,0,.069,1.181,7.571,7.571,0,0,0,.243,1.135Zm-4.334-.9a4.552,4.552,0,0,0,2.545-.7,3.523,3.523,0,0,0,1.542-1.791v-2.2h-2.862a4.653,4.653,0,0,0-2.71.738,2.144,2.144,0,0,0-1.075,1.781,1.981,1.981,0,0,0,.684,1.572,2.744,2.744,0,0,0,1.876.6Z" transform="translate(1.804 -0.312)" fill="#fff" fill-rule="evenodd"/><path d="M15.987,47.808c-.6-.161-.987-.754-.987-1.672v-30.3a1.608,1.608,0,0,1,.851-1.632h0L30.743,31.088,15.987,47.808Zm2.05-.643L35.962,37.006,31.6,32.055,18.036,47.165Zm18.049-22.13L18.41,15.015,31.622,30.093l4.464-5.057Zm1.2.68,6.924,3.925c1.311.743,1.323,1.941,0,2.691l-7.1,4.024-4.631-5.285,4.806-5.356Z" transform="translate(-15 -14.2)" fill="#fff" fill-rule="evenodd"/></svg>