<svg xmlns="http://www.w3.org/2000/svg" xmlns:xlink="http://www.w3.org/1999/xlink" width="95.069" height="72.255" viewBox="0 0 95.069 72.255"><defs><clipPath id="a"><rect width="95.069" height="72.255" fill="none"/></clipPath></defs><g clip-path="url(#a)"><path d="M85.31,174.173H80.692V133.658a1.758,1.758,0,1,0-3.517,0v42.273a1.766,1.766,0,0,0,1.776,1.758h4.6v2.416a4.518,4.518,0,0,1-4.512,4.512H8.028a4.518,4.518,0,0,1-4.512-4.512V177.69h4.6a1.751,1.751,0,0,0,1.758-1.758V133.658a1.758,1.758,0,1,0-3.517,0v40.515h-4.6A1.751,1.751,0,0,0,0,175.932v4.174a8.043,8.043,0,0,0,8.028,8.028H79.04a8.043,8.043,0,0,0,8.028-8.028v-4.174A1.751,1.751,0,0,0,85.31,174.173Z" transform="translate(8 -115.879)" fill="#4fb499" opacity="0.1"/><path d="M98.1,369.9H77.658a1.758,1.758,0,1,0,0,3.517H96.593a3.97,3.97,0,0,0,3.73,2.611h11.226a3.97,3.97,0,0,0,3.73-2.611H134.23a1.758,1.758,0,1,0,0-3.517H113.786a1.751,1.751,0,0,0-1.758,1.758v.391a.47.47,0,0,1-.462.462H100.34a.47.47,0,0,1-.462-.462v-.391A1.778,1.778,0,0,0,98.1,369.9Z" transform="translate(-62.419 -311.605)" fill="#4fb499"/><path d="M85.31,174.173H80.692V133.658a1.758,1.758,0,1,0-3.517,0v42.273a1.766,1.766,0,0,0,1.776,1.758h4.6v2.416a4.518,4.518,0,0,1-4.512,4.512H8.028a4.518,4.518,0,0,1-4.512-4.512V177.69h4.6a1.751,1.751,0,0,0,1.758-1.758V133.658a1.758,1.758,0,1,0-3.517,0v40.515h-4.6A1.751,1.751,0,0,0,0,175.932v4.174a8.043,8.043,0,0,0,8.028,8.028H79.04a8.043,8.043,0,0,0,8.028-8.028v-4.174A1.751,1.751,0,0,0,85.31,174.173Z" transform="translate(0 -115.879)" fill="#4fb499"/><path d="M206.358,108.925l-10.142,10.089-3.535-3.552a1.758,1.758,0,0,0-2.487,2.487l4.76,4.8a1.778,1.778,0,0,0,1.243.515,1.81,1.81,0,0,0,1.243-.515l11.4-11.332a1.758,1.758,0,1,0-2.487-2.487Z" transform="translate(-155.985 -96.563)" fill="#f7b743"/><path d="M136.458,41.7H93.048A6.459,6.459,0,0,0,86.6,48.148V73.8a6.459,6.459,0,0,0,6.448,6.448h1.829V87.97a2.6,2.6,0,0,0,2.611,2.593,2.549,2.549,0,0,0,1.954-.906l8.135-9.414h28.881a6.459,6.459,0,0,0,6.448-6.448V48.148A6.458,6.458,0,0,0,136.458,41.7Zm2.931,32.1a2.934,2.934,0,0,1-2.931,2.931h-29.7a1.742,1.742,0,0,0-1.332.6l-7.051,8.153v-7a1.751,1.751,0,0,0-1.758-1.758H93.03A2.934,2.934,0,0,1,90.1,73.8V48.148a2.934,2.934,0,0,1,2.931-2.931h43.41a2.934,2.934,0,0,1,2.931,2.931V73.8Z" transform="translate(-71.218 -41.7)" fill="#4fb499"/></g></svg>